<svg id="greece_r1" xmlns="http://www.w3.org/2000/svg" xmlns:xlink="http://www.w3.org/1999/xlink" viewBox="0 0 1000 840"><defs><style>.cls-1{fill:none;}.cls-2{clip-path:url(#clip-path);}.cls-3{fill:#004c9b;}.cls-3,.cls-4{fill-rule:evenodd;}.cls-4,.cls-5{fill:#fff;}</style><clipPath id="clip-path"><ellipse class="cls-1" cx="500" cy="420" rx="500" ry="420"/></clipPath></defs><title>greece_r1</title><g class="cls-2"><path class="cls-3" d="M215.25,277.51H0v190H215.25v-190ZM0,657.51H1377.51v-95H0v95Zm215.25-665H0v190H215.25v-190ZM0,847.51H1377.51v-95H0v95Zm310.27-855v190H522.49v-95h855v-95H310.27Zm212.21,285h855v-95h-855v95Zm-212.21,190H1377.51v-95h-855v-95H310.27v190Z"/><polygon class="cls-4" points="1377.51 182.51 1377.51 87.51 522.49 87.51 522.49 182.49 310.27 182.49 310.27 -7.51 215.25 -7.51 215.25 182.49 0 182.49 0 277.51 215.25 277.51 215.25 467.51 0 467.51 0 562.51 1377.51 562.51 1377.51 467.51 310.27 467.51 310.27 277.51 522.49 277.51 522.49 182.51 1377.51 182.51"/><rect class="cls-5" x="522.49" y="277.51" width="855.02" height="95"/><rect class="cls-5" y="657.51" width="1377.51" height="95"/></g></svg>